<svg width="1142" height="212" viewBox="0 0 1142 212" fill="none" xmlns="http://www.w3.org/2000/svg">
<path d="M150.638 33.5455V179H137.712L51.7749 57.196H50.6385V179H37.3572V33.5455H50.2124L136.434 155.491H137.57V33.5455H150.638ZM298.31 179V33.5455H382.685V45.4773H311.592V100.236H378.211V112.168H311.592V167.068H384.106V179H298.31ZM528.333 33.5455L568.603 96.6847H569.526L609.796 33.5455H625.492L578.688 106.273L625.492 179H609.796L569.526 116.571H568.603L528.333 179H512.637L560.151 106.273L512.637 33.5455H528.333ZM856.616 33.5455H869.897V129.852C869.897 139.748 867.577 148.602 862.937 156.415C858.297 164.18 851.834 170.312 843.548 174.81C835.309 179.26 825.721 181.486 814.783 181.486C803.893 181.486 794.305 179.237 786.019 174.739C777.733 170.241 771.27 164.109 766.63 156.344C761.99 148.579 759.67 139.748 759.67 129.852V33.5455H772.951V128.929C772.951 136.647 774.679 143.536 778.136 149.597C781.592 155.61 786.445 160.345 792.695 163.801C798.993 167.258 806.355 168.986 814.783 168.986C823.211 168.986 830.574 167.258 836.871 163.801C843.169 160.345 848.022 155.61 851.431 149.597C854.888 143.536 856.616 136.647 856.616 128.929V33.5455ZM1096.48 69.9091C1095.67 61.8125 1092.1 55.3731 1085.75 50.5909C1079.41 45.8087 1071.43 43.4176 1061.82 43.4176C1055.05 43.4176 1049.08 44.5777 1043.92 46.8977C1038.8 49.2178 1034.78 52.4375 1031.84 56.5568C1028.96 60.6288 1027.51 65.2689 1027.51 70.4773C1027.51 74.3125 1028.34 77.6742 1030 80.5625C1031.66 83.4508 1033.88 85.9365 1036.67 88.0199C1039.51 90.0559 1042.64 91.8078 1046.05 93.2756C1049.51 94.7434 1052.99 95.9744 1056.49 96.9688L1071.83 101.372C1076.47 102.651 1081.11 104.284 1085.75 106.273C1090.39 108.261 1094.63 110.771 1098.46 113.801C1102.35 116.784 1105.45 120.454 1107.77 124.81C1110.14 129.118 1111.32 134.303 1111.32 140.364C1111.32 148.129 1109.31 155.113 1105.28 161.315C1101.26 167.518 1095.48 172.442 1087.95 176.088C1080.42 179.687 1071.4 181.486 1060.89 181.486C1051 181.486 1042.4 179.852 1035.11 176.585C1027.82 173.271 1022.09 168.702 1017.92 162.878C1013.76 157.054 1011.41 150.307 1010.89 142.636H1024.53C1025 148.366 1026.9 153.219 1030.21 157.196C1033.53 161.173 1037.83 164.204 1043.14 166.287C1048.44 168.323 1054.36 169.341 1060.89 169.341C1068.14 169.341 1074.58 168.134 1080.21 165.719C1085.89 163.257 1090.34 159.848 1093.56 155.491C1096.83 151.088 1098.46 145.974 1098.46 140.151C1098.46 135.226 1097.19 131.107 1094.63 127.793C1092.07 124.431 1088.5 121.614 1083.9 119.341C1079.36 117.068 1074.08 115.056 1068.07 113.304L1050.67 108.19C1039.25 104.781 1030.4 100.07 1024.1 94.0568C1017.81 88.0436 1014.66 80.3731 1014.66 71.0455C1014.66 63.233 1016.74 56.3674 1020.91 50.4489C1025.12 44.483 1030.8 39.8428 1037.95 36.5284C1045.15 33.1667 1053.22 31.4858 1062.17 31.4858C1071.21 31.4858 1079.22 33.143 1086.18 36.4574C1093.14 39.7718 1098.65 44.3409 1102.73 50.1648C1106.84 55.9413 1109.05 62.5227 1109.33 69.9091H1096.48Z" fill="white"/>
</svg>
